{
	"asset":{
		"generator":"Khronos glTF Blender I/O v4.2.57",
		"version":"2.0"
	},
	"scene":0,
	"scenes":[
		{
			"name":"Scene",
			"nodes":[
				0,
				1,
				2,
				3,
				4,
				5,
				6,
				7,
				8,
				9,
				10,
				11,
				12,
				13,
				14,
				15,
				16,
				17,
				18,
				19,
				20,
				21
			]
		}
	],
	"nodes":[
		{
			"mesh":0,
			"name":"cube 2x4-col",
			"translation":[
				-1,
				0,
				-9.5
			]
		},
		{
			"mesh":1,
			"name":"ramp 2x1-col",
			"translation":[
				-8.5,
				0,
				-9.5
			]
		},
		{
			"mesh":2,
			"name":"ramp 2x2-col",
			"translation":[
				-11,
				0,
				-9.5
			]
		},
		{
			"mesh":3,
			"name":"ramp 2x3-col",
			"translation":[
				-13.5,
				0,
				-9.5
			]
		},
		{
			"mesh":4,
			"name":"cube 2x2-col",
			"translation":[
				8,
				0,
				-9.5
			]
		},
		{
			"mesh":5,
			"name":"cube 4x4-col",
			"translation":[
				3.5,
				0,
				-9.5
			]
		},
		{
			"mesh":6,
			"name":"cube 1x2-col",
			"translation":[
				-3.5,
				0,
				-9.5
			]
		},
		{
			"mesh":7,
			"name":"ramp 1x1-col",
			"translation":[
				-6,
				0,
				-9.5
			]
		},
		{
			"mesh":8,
			"name":"wall 2x1-col",
			"translation":[
				-6,
				0,
				-3.5
			]
		},
		{
			"mesh":9,
			"name":"wooden wall-col",
			"translation":[
				4.5,
				0,
				-3.5
			]
		},
		{
			"mesh":10,
			"name":"wall door-col",
			"translation":[
				-11,
				0,
				-3.5
			]
		},
		{
			"mesh":11,
			"name":"wall window-col",
			"translation":[
				-13.5,
				0,
				-3.5
			]
		},
		{
			"mesh":12,
			"name":"wooden door-col",
			"translation":[
				6.5,
				0,
				-3.5
			]
		},
		{
			"mesh":13,
			"name":"wooden window-col",
			"translation":[
				8.5,
				0,
				-3.5
			]
		},
		{
			"mesh":14,
			"name":"wooden plat1-col",
			"translation":[
				-3.5,
				0,
				-3.5
			]
		},
		{
			"mesh":15,
			"name":"wooden plat 4x1-col",
			"translation":[
				-1.5,
				0,
				-3.5
			]
		},
		{
			"mesh":16,
			"name":"wooden ramp 2x2-col",
			"translation":[
				2,
				0,
				-3.5
			]
		},
		{
			"mesh":17,
			"name":"wooden ramp 4x1-col",
			"translation":[
				0,
				0,
				-3.5
			]
		},
		{
			"mesh":18,
			"name":"wooden wall2-col",
			"rotation":[
				0,
				-0.70710688829422,
				0,
				0.7071066498756409
			],
			"translation":[
				10.5,
				0,
				-3.5
			]
		},
		{
			"mesh":19,
			"name":"wall 2x1corner-col",
			"rotation":[
				0,
				-0.7071068286895752,
				0,
				0.7071068286895752
			],
			"translation":[
				-8.5,
				0,
				-3.5
			]
		},
		{
			"mesh":20,
			"name":"cylinder 2x2-col",
			"translation":[
				10.5,
				0,
				-9.5
			]
		},
		{
			"mesh":21,
			"name":"cylinder 4x4-col",
			"translation":[
				14.5,
				0,
				-9
			]
		}
	],
	"materials":[
		{
			"alphaMode":"BLEND",
			"doubleSided":true,
			"name":"mat_prototype_map",
			"pbrMetallicRoughness":{
				"baseColorTexture":{
					"index":0
				},
				"metallicFactor":0,
				"roughnessFactor":0.5
			}
		}
	],
	"meshes":[
		{
			"name":"Cube.001",
			"primitives":[
				{
					"attributes":{
						"POSITION":0,
						"NORMAL":1,
						"TEXCOORD_0":2
					},
					"indices":3,
					"material":0
				}
			]
		},
		{
			"name":"Cube.002",
			"primitives":[
				{
					"attributes":{
						"POSITION":4,
						"NORMAL":5,
						"TEXCOORD_0":6
					},
					"indices":7,
					"material":0
				}
			]
		},
		{
			"name":"Cube.005",
			"primitives":[
				{
					"attributes":{
						"POSITION":8,
						"NORMAL":9,
						"TEXCOORD_0":10
					},
					"indices":11,
					"material":0
				}
			]
		},
		{
			"name":"Cube.006",
			"primitives":[
				{
					"attributes":{
						"POSITION":12,
						"NORMAL":13,
						"TEXCOORD_0":14
					},
					"indices":15,
					"material":0
				}
			]
		},
		{
			"name":"Cube.007",
			"primitives":[
				{
					"attributes":{
						"POSITION":16,
						"NORMAL":17,
						"TEXCOORD_0":18
					},
					"indices":19,
					"material":0
				}
			]
		},
		{
			"name":"Cube.008",
			"primitives":[
				{
					"attributes":{
						"POSITION":20,
						"NORMAL":21,
						"TEXCOORD_0":22
					},
					"indices":23,
					"material":0
				}
			]
		},
		{
			"name":"Cube.009",
			"primitives":[
				{
					"attributes":{
						"POSITION":24,
						"NORMAL":25,
						"TEXCOORD_0":26
					},
					"indices":27,
					"material":0
				}
			]
		},
		{
			"name":"Cube.011",
			"primitives":[
				{
					"attributes":{
						"POSITION":28,
						"NORMAL":29,
						"TEXCOORD_0":30
					},
					"indices":31,
					"material":0
				}
			]
		},
		{
			"name":"Cube.019",
			"primitives":[
				{
					"attributes":{
						"POSITION":32,
						"NORMAL":33,
						"TEXCOORD_0":34
					},
					"indices":35,
					"material":0
				}
			]
		},
		{
			"name":"Cube.020",
			"primitives":[
				{
					"attributes":{
						"POSITION":36,
						"NORMAL":37,
						"TEXCOORD_0":38
					},
					"indices":39,
					"material":0
				}
			]
		},
		{
			"name":"Cube.021",
			"primitives":[
				{
					"attributes":{
						"POSITION":40,
						"NORMAL":41,
						"TEXCOORD_0":42
					},
					"indices":43,
					"material":0
				}
			]
		},
		{
			"name":"Cube.022",
			"primitives":[
				{
					"attributes":{
						"POSITION":44,
						"NORMAL":45,
						"TEXCOORD_0":46
					},
					"indices":47,
					"material":0
				}
			]
		},
		{
			"name":"Cube.003",
			"primitives":[
				{
					"attributes":{
						"POSITION":48,
						"NORMAL":49,
						"TEXCOORD_0":50
					},
					"indices":51,
					"material":0
				}
			]
		},
		{
			"name":"Cube.004",
			"primitives":[
				{
					"attributes":{
						"POSITION":52,
						"NORMAL":53,
						"TEXCOORD_0":54
					},
					"indices":55,
					"material":0
				}
			]
		},
		{
			"name":"Cube.012",
			"primitives":[
				{
					"attributes":{
						"POSITION":56,
						"NORMAL":57,
						"TEXCOORD_0":58
					},
					"indices":59,
					"material":0
				}
			]
		},
		{
			"name":"Cube.018",
			"primitives":[
				{
					"attributes":{
						"POSITION":60,
						"NORMAL":61,
						"TEXCOORD_0":62
					},
					"indices":63,
					"material":0
				}
			]
		},
		{
			"name":"Cube.023",
			"primitives":[
				{
					"attributes":{
						"POSITION":64,
						"NORMAL":65,
						"TEXCOORD_0":66
					},
					"indices":67,
					"material":0
				}
			]
		},
		{
			"name":"Cube.024",
			"primitives":[
				{
					"attributes":{
						"POSITION":68,
						"NORMAL":69,
						"TEXCOORD_0":70
					},
					"indices":71,
					"material":0
				}
			]
		},
		{
			"name":"Cube.027",
			"primitives":[
				{
					"attributes":{
						"POSITION":72,
						"NORMAL":73,
						"TEXCOORD_0":74
					},
					"indices":75,
					"material":0
				}
			]
		},
		{
			"name":"Cube.016",
			"primitives":[
				{
					"attributes":{
						"POSITION":76,
						"NORMAL":77,
						"TEXCOORD_0":78
					},
					"indices":79,
					"material":0
				}
			]
		},
		{
			"name":"Cube.037",
			"primitives":[
				{
					"attributes":{
						"POSITION":80,
						"NORMAL":81,
						"TEXCOORD_0":82
					},
					"indices":83,
					"material":0
				}
			]
		},
		{
			"name":"Cube.038",
			"primitives":[
				{
					"attributes":{
						"POSITION":84,
						"NORMAL":85,
						"TEXCOORD_0":86
					},
					"indices":87,
					"material":0
				}
			]
		}
	],
	"textures":[
		{
			"sampler":0,
			"source":0
		}
	],
	"images":[
		{
			"mimeType":"image/png",
			"name":"tex_prototype_map.png",
			"uri":"Textures/tex_prototype_map.png"
		}
	],
	"accessors":[
		{
			"bufferView":0,
			"componentType":5126,
			"count":144,
			"max":[
				3,
				2,
				3
			],
			"min":[
				-1,
				0,
				-1
			],
			"type":"VEC3"
		},
		{
			"bufferView":1,
			"componentType":5126,
			"count":144,
			"type":"VEC3"
		},
		{
			"bufferView":2,
			"componentType":5126,
			"count":144,
			"type":"VEC2"
		},
		{
			"bufferView":3,
			"componentType":5123,
			"count":384,
			"type":"SCALAR"
		},
		{
			"bufferView":4,
			"componentType":5126,
			"count":41,
			"max":[
				1,
				2,
				1
			],
			"min":[
				-1,
				0,
				-1
			],
			"type":"VEC3"
		},
		{
			"bufferView":5,
			"componentType":5126,
			"count":41,
			"type":"VEC3"
		},
		{
			"bufferView":6,
			"componentType":5126,
			"count":41,
			"type":"VEC2"
		},
		{
			"bufferView":7,
			"componentType":5123,
			"count":96,
			"type":"SCALAR"
		},
		{
			"bufferView":8,
			"componentType":5126,
			"count":46,
			"max":[
				1,
				2,
				3
			],
			"min":[
				-1,
				0,
				-1
			],
			"type":"VEC3"
		},
		{
			"bufferView":9,
			"componentType":5126,
			"count":46,
			"type":"VEC3"
		},
		{
			"bufferView":10,
			"componentType":5126,
			"count":46,
			"type":"VEC2"
		},
		{
			"bufferView":11,
			"componentType":5123,
			"count":108,
			"type":"SCALAR"
		},
		{
			"bufferView":12,
			"componentType":5126,
			"count":68,
			"max":[
				1,
				2,
				5
			],
			"min":[
				-1,
				0,
				-1
			],
			"type":"VEC3"
		},
		{
			"bufferView":13,
			"componentType":5126,
			"count":68,
			"type":"VEC3"
		},
		{
			"bufferView":14,
			"componentType":5126,
			"count":68,
			"type":"VEC2"
		},
		{
			"bufferView":15,
			"componentType":5123,
			"count":156,
			"type":"SCALAR"
		},
		{
			"bufferView":16,
			"componentType":5126,
			"count":54,
			"max":[
				1,
				2,
				1
			],
			"min":[
				-1,
				0,
				-1
			],
			"type":"VEC3"
		},
		{
			"bufferView":17,
			"componentType":5126,
			"count":54,
			"type":"VEC3"
		},
		{
			"bufferView":18,
			"componentType":5126,
			"count":54,
			"type":"VEC2"
		},
		{
			"bufferView":19,
			"componentType":5123,
			"count":144,
			"type":"SCALAR"
		},
		{
			"bufferView":20,
			"componentType":5126,
			"count":208,
			"max":[
				3,
				4,
				3
			],
			"min":[
				-1,
				0,
				-1
			],
			"type":"VEC3"
		},
		{
			"bufferView":21,
			"componentType":5126,
			"count":208,
			"type":"VEC3"
		},
		{
			"bufferView":22,
			"componentType":5126,
			"count":208,
			"type":"VEC2"
		},
		{
			"bufferView":23,
			"componentType":5123,
			"count":576,
			"type":"SCALAR"
		},
		{
			"bufferView":24,
			"componentType":5126,
			"count":42,
			"max":[
				1,
				1,
				1
			],
			"min":[
				-1,
				0,
				-1
			],
			"type":"VEC3"
		},
		{
			"bufferView":25,
			"componentType":5126,
			"count":42,
			"type":"VEC3"
		},
		{
			"bufferView":26,
			"componentType":5126,
			"count":42,
			"type":"VEC2"
		},
		{
			"bufferView":27,
			"componentType":5123,
			"count":96,
			"type":"SCALAR"
		},
		{
			"bufferView":28,
			"componentType":5126,
			"count":31,
			"max":[
				1,
				1,
				1
			],
			"min":[
				-1,
				0,
				-1
			],
			"type":"VEC3"
		},
		{
			"bufferView":29,
			"componentType":5126,
			"count":31,
			"type":"VEC3"
		},
		{
			"bufferView":30,
			"componentType":5126,
			"count":31,
			"type":"VEC2"
		},
		{
			"bufferView":31,
			"componentType":5123,
			"count":60,
			"type":"SCALAR"
		},
		{
			"bufferView":32,
			"componentType":5126,
			"count":46,
			"max":[
				1,
				2,
				0
			],
			"min":[
				-1,
				0,
				-1
			],
			"type":"VEC3"
		},
		{
			"bufferView":33,
			"componentType":5126,
			"count":46,
			"type":"VEC3"
		},
		{
			"bufferView":34,
			"componentType":5126,
			"count":46,
			"type":"VEC2"
		},
		{
			"bufferView":35,
			"componentType":5123,
			"count":96,
			"type":"SCALAR"
		},
		{
			"bufferView":36,
			"componentType":5126,
			"count":24,
			"max":[
				1,
				2.5,
				-0.75
			],
			"min":[
				-1,
				0,
				-1
			],
			"type":"VEC3"
		},
		{
			"bufferView":37,
			"componentType":5126,
			"count":24,
			"type":"VEC3"
		},
		{
			"bufferView":38,
			"componentType":5126,
			"count":24,
			"type":"VEC2"
		},
		{
			"bufferView":39,
			"componentType":5123,
			"count":36,
			"type":"SCALAR"
		},
		{
			"bufferView":40,
			"componentType":5126,
			"count":125,
			"max":[
				1,
				2,
				0
			],
			"min":[
				-1,
				0,
				-1
			],
			"type":"VEC3"
		},
		{
			"bufferView":41,
			"componentType":5126,
			"count":125,
			"type":"VEC3"
		},
		{
			"bufferView":42,
			"componentType":5126,
			"count":125,
			"type":"VEC2"
		},
		{
			"bufferView":43,
			"componentType":5123,
			"count":204,
			"type":"SCALAR"
		},
		{
			"bufferView":44,
			"componentType":5126,
			"count":137,
			"max":[
				1,
				2,
				0
			],
			"min":[
				-1,
				0,
				-1
			],
			"type":"VEC3"
		},
		{
			"bufferView":45,
			"componentType":5126,
			"count":137,
			"type":"VEC3"
		},
		{
			"bufferView":46,
			"componentType":5126,
			"count":137,
			"type":"VEC2"
		},
		{
			"bufferView":47,
			"componentType":5123,
			"count":216,
			"type":"SCALAR"
		},
		{
			"bufferView":48,
			"componentType":5126,
			"count":76,
			"max":[
				1,
				2.5,
				-0.75
			],
			"min":[
				-1,
				0,
				-1
			],
			"type":"VEC3"
		},
		{
			"bufferView":49,
			"componentType":5126,
			"count":76,
			"type":"VEC3"
		},
		{
			"bufferView":50,
			"componentType":5126,
			"count":76,
			"type":"VEC2"
		},
		{
			"bufferView":51,
			"componentType":5123,
			"count":156,
			"type":"SCALAR"
		},
		{
			"bufferView":52,
			"componentType":5126,
			"count":86,
			"max":[
				1,
				2.5,
				-0.75
			],
			"min":[
				-1,
				0,
				-1
			],
			"type":"VEC3"
		},
		{
			"bufferView":53,
			"componentType":5126,
			"count":86,
			"type":"VEC3"
		},
		{
			"bufferView":54,
			"componentType":5126,
			"count":86,
			"type":"VEC2"
		},
		{
			"bufferView":55,
			"componentType":5123,
			"count":192,
			"type":"SCALAR"
		},
		{
			"bufferView":56,
			"componentType":5126,
			"count":24,
			"max":[
				1,
				0.25,
				1
			],
			"min":[
				-1,
				0,
				-1
			],
			"type":"VEC3"
		},
		{
			"bufferView":57,
			"componentType":5126,
			"count":24,
			"type":"VEC3"
		},
		{
			"bufferView":58,
			"componentType":5126,
			"count":24,
			"type":"VEC2"
		},
		{
			"bufferView":59,
			"componentType":5123,
			"count":36,
			"type":"SCALAR"
		},
		{
			"bufferView":60,
			"componentType":5126,
			"count":40,
			"max":[
				0.5,
				0.25,
				3
			],
			"min":[
				-0.5,
				0,
				-1
			],
			"type":"VEC3"
		},
		{
			"bufferView":61,
			"componentType":5126,
			"count":40,
			"type":"VEC3"
		},
		{
			"bufferView":62,
			"componentType":5126,
			"count":40,
			"type":"VEC2"
		},
		{
			"bufferView":63,
			"componentType":5123,
			"count":60,
			"type":"SCALAR"
		},
		{
			"bufferView":64,
			"componentType":5126,
			"count":24,
			"max":[
				1,
				2,
				1
			],
			"min":[
				-1,
				0,
				-1
			],
			"type":"VEC3"
		},
		{
			"bufferView":65,
			"componentType":5126,
			"count":24,
			"type":"VEC3"
		},
		{
			"bufferView":66,
			"componentType":5126,
			"count":24,
			"type":"VEC2"
		},
		{
			"bufferView":67,
			"componentType":5123,
			"count":36,
			"type":"SCALAR"
		},
		{
			"bufferView":68,
			"componentType":5126,
			"count":24,
			"max":[
				0.5,
				2,
				3
			],
			"min":[
				-0.5,
				0,
				-1
			],
			"type":"VEC3"
		},
		{
			"bufferView":69,
			"componentType":5126,
			"count":24,
			"type":"VEC3"
		},
		{
			"bufferView":70,
			"componentType":5126,
			"count":24,
			"type":"VEC2"
		},
		{
			"bufferView":71,
			"componentType":5123,
			"count":36,
			"type":"SCALAR"
		},
		{
			"bufferView":72,
			"componentType":5126,
			"count":44,
			"max":[
				1,
				2.5,
				1
			],
			"min":[
				-1,
				0,
				-1
			],
			"type":"VEC3"
		},
		{
			"bufferView":73,
			"componentType":5126,
			"count":44,
			"type":"VEC3"
		},
		{
			"bufferView":74,
			"componentType":5126,
			"count":44,
			"type":"VEC2"
		},
		{
			"bufferView":75,
			"componentType":5123,
			"count":66,
			"type":"SCALAR"
		},
		{
			"bufferView":76,
			"componentType":5126,
			"count":72,
			"max":[
				1,
				2,
				1
			],
			"min":[
				-1,
				0,
				-1
			],
			"type":"VEC3"
		},
		{
			"bufferView":77,
			"componentType":5126,
			"count":72,
			"type":"VEC3"
		},
		{
			"bufferView":78,
			"componentType":5126,
			"count":72,
			"type":"VEC2"
		},
		{
			"bufferView":79,
			"componentType":5123,
			"count":144,
			"type":"SCALAR"
		},
		{
			"bufferView":80,
			"componentType":5126,
			"count":66,
			"max":[
				1.2071068286895752,
				2,
				1.2071068286895752
			],
			"min":[
				-1.2071068286895752,
				0,
				-1.2071068286895752
			],
			"type":"VEC3"
		},
		{
			"bufferView":81,
			"componentType":5126,
			"count":66,
			"type":"VEC3"
		},
		{
			"bufferView":82,
			"componentType":5126,
			"count":66,
			"type":"VEC2"
		},
		{
			"bufferView":83,
			"componentType":5123,
			"count":144,
			"type":"SCALAR"
		},
		{
			"bufferView":84,
			"componentType":5126,
			"count":264,
			"max":[
				2.3251407146453857,
				4,
				2.3251407146453857
			],
			"min":[
				-2.3251407146453857,
				0,
				-2.3251407146453857
			],
			"type":"VEC3"
		},
		{
			"bufferView":85,
			"componentType":5126,
			"count":264,
			"type":"VEC3"
		},
		{
			"bufferView":86,
			"componentType":5126,
			"count":264,
			"type":"VEC2"
		},
		{
			"bufferView":87,
			"componentType":5123,
			"count":576,
			"type":"SCALAR"
		}
	],
	"bufferViews":[
		{
			"buffer":0,
			"byteLength":1728,
			"byteOffset":0,
			"target":34962
		},
		{
			"buffer":0,
			"byteLength":1728,
			"byteOffset":1728,
			"target":34962
		},
		{
			"buffer":0,
			"byteLength":1152,
			"byteOffset":3456,
			"target":34962
		},
		{
			"buffer":0,
			"byteLength":768,
			"byteOffset":4608,
			"target":34963
		},
		{
			"buffer":0,
			"byteLength":492,
			"byteOffset":5376,
			"target":34962
		},
		{
			"buffer":0,
			"byteLength":492,
			"byteOffset":5868,
			"target":34962
		},
		{
			"buffer":0,
			"byteLength":328,
			"byteOffset":6360,
			"target":34962
		},
		{
			"buffer":0,
			"byteLength":192,
			"byteOffset":6688,
			"target":34963
		},
		{
			"buffer":0,
			"byteLength":552,
			"byteOffset":6880,
			"target":34962
		},
		{
			"buffer":0,
			"byteLength":552,
			"byteOffset":7432,
			"target":34962
		},
		{
			"buffer":0,
			"byteLength":368,
			"byteOffset":7984,
			"target":34962
		},
		{
			"buffer":0,
			"byteLength":216,
			"byteOffset":8352,
			"target":34963
		},
		{
			"buffer":0,
			"byteLength":816,
			"byteOffset":8568,
			"target":34962
		},
		{
			"buffer":0,
			"byteLength":816,
			"byteOffset":9384,
			"target":34962
		},
		{
			"buffer":0,
			"byteLength":544,
			"byteOffset":10200,
			"target":34962
		},
		{
			"buffer":0,
			"byteLength":312,
			"byteOffset":10744,
			"target":34963
		},
		{
			"buffer":0,
			"byteLength":648,
			"byteOffset":11056,
			"target":34962
		},
		{
			"buffer":0,
			"byteLength":648,
			"byteOffset":11704,
			"target":34962
		},
		{
			"buffer":0,
			"byteLength":432,
			"byteOffset":12352,
			"target":34962
		},
		{
			"buffer":0,
			"byteLength":288,
			"byteOffset":12784,
			"target":34963
		},
		{
			"buffer":0,
			"byteLength":2496,
			"byteOffset":13072,
			"target":34962
		},
		{
			"buffer":0,
			"byteLength":2496,
			"byteOffset":15568,
			"target":34962
		},
		{
			"buffer":0,
			"byteLength":1664,
			"byteOffset":18064,
			"target":34962
		},
		{
			"buffer":0,
			"byteLength":1152,
			"byteOffset":19728,
			"target":34963
		},
		{
			"buffer":0,
			"byteLength":504,
			"byteOffset":20880,
			"target":34962
		},
		{
			"buffer":0,
			"byteLength":504,
			"byteOffset":21384,
			"target":34962
		},
		{
			"buffer":0,
			"byteLength":336,
			"byteOffset":21888,
			"target":34962
		},
		{
			"buffer":0,
			"byteLength":192,
			"byteOffset":22224,
			"target":34963
		},
		{
			"buffer":0,
			"byteLength":372,
			"byteOffset":22416,
			"target":34962
		},
		{
			"buffer":0,
			"byteLength":372,
			"byteOffset":22788,
			"target":34962
		},
		{
			"buffer":0,
			"byteLength":248,
			"byteOffset":23160,
			"target":34962
		},
		{
			"buffer":0,
			"byteLength":120,
			"byteOffset":23408,
			"target":34963
		},
		{
			"buffer":0,
			"byteLength":552,
			"byteOffset":23528,
			"target":34962
		},
		{
			"buffer":0,
			"byteLength":552,
			"byteOffset":24080,
			"target":34962
		},
		{
			"buffer":0,
			"byteLength":368,
			"byteOffset":24632,
			"target":34962
		},
		{
			"buffer":0,
			"byteLength":192,
			"byteOffset":25000,
			"target":34963
		},
		{
			"buffer":0,
			"byteLength":288,
			"byteOffset":25192,
			"target":34962
		},
		{
			"buffer":0,
			"byteLength":288,
			"byteOffset":25480,
			"target":34962
		},
		{
			"buffer":0,
			"byteLength":192,
			"byteOffset":25768,
			"target":34962
		},
		{
			"buffer":0,
			"byteLength":72,
			"byteOffset":25960,
			"target":34963
		},
		{
			"buffer":0,
			"byteLength":1500,
			"byteOffset":26032,
			"target":34962
		},
		{
			"buffer":0,
			"byteLength":1500,
			"byteOffset":27532,
			"target":34962
		},
		{
			"buffer":0,
			"byteLength":1000,
			"byteOffset":29032,
			"target":34962
		},
		{
			"buffer":0,
			"byteLength":408,
			"byteOffset":30032,
			"target":34963
		},
		{
			"buffer":0,
			"byteLength":1644,
			"byteOffset":30440,
			"target":34962
		},
		{
			"buffer":0,
			"byteLength":1644,
			"byteOffset":32084,
			"target":34962
		},
		{
			"buffer":0,
			"byteLength":1096,
			"byteOffset":33728,
			"target":34962
		},
		{
			"buffer":0,
			"byteLength":432,
			"byteOffset":34824,
			"target":34963
		},
		{
			"buffer":0,
			"byteLength":912,
			"byteOffset":35256,
			"target":34962
		},
		{
			"buffer":0,
			"byteLength":912,
			"byteOffset":36168,
			"target":34962
		},
		{
			"buffer":0,
			"byteLength":608,
			"byteOffset":37080,
			"target":34962
		},
		{
			"buffer":0,
			"byteLength":312,
			"byteOffset":37688,
			"target":34963
		},
		{
			"buffer":0,
			"byteLength":1032,
			"byteOffset":38000,
			"target":34962
		},
		{
			"buffer":0,
			"byteLength":1032,
			"byteOffset":39032,
			"target":34962
		},
		{
			"buffer":0,
			"byteLength":688,
			"byteOffset":40064,
			"target":34962
		},
		{
			"buffer":0,
			"byteLength":384,
			"byteOffset":40752,
			"target":34963
		},
		{
			"buffer":0,
			"byteLength":288,
			"byteOffset":41136,
			"target":34962
		},
		{
			"buffer":0,
			"byteLength":288,
			"byteOffset":41424,
			"target":34962
		},
		{
			"buffer":0,
			"byteLength":192,
			"byteOffset":41712,
			"target":34962
		},
		{
			"buffer":0,
			"byteLength":72,
			"byteOffset":41904,
			"target":34963
		},
		{
			"buffer":0,
			"byteLength":480,
			"byteOffset":41976,
			"target":34962
		},
		{
			"buffer":0,
			"byteLength":480,
			"byteOffset":42456,
			"target":34962
		},
		{
			"buffer":0,
			"byteLength":320,
			"byteOffset":42936,
			"target":34962
		},
		{
			"buffer":0,
			"byteLength":120,
			"byteOffset":43256,
			"target":34963
		},
		{
			"buffer":0,
			"byteLength":288,
			"byteOffset":43376,
			"target":34962
		},
		{
			"buffer":0,
			"byteLength":288,
			"byteOffset":43664,
			"target":34962
		},
		{
			"buffer":0,
			"byteLength":192,
			"byteOffset":43952,
			"target":34962
		},
		{
			"buffer":0,
			"byteLength":72,
			"byteOffset":44144,
			"target":34963
		},
		{
			"buffer":0,
			"byteLength":288,
			"byteOffset":44216,
			"target":34962
		},
		{
			"buffer":0,
			"byteLength":288,
			"byteOffset":44504,
			"target":34962
		},
		{
			"buffer":0,
			"byteLength":192,
			"byteOffset":44792,
			"target":34962
		},
		{
			"buffer":0,
			"byteLength":72,
			"byteOffset":44984,
			"target":34963
		},
		{
			"buffer":0,
			"byteLength":528,
			"byteOffset":45056,
			"target":34962
		},
		{
			"buffer":0,
			"byteLength":528,
			"byteOffset":45584,
			"target":34962
		},
		{
			"buffer":0,
			"byteLength":352,
			"byteOffset":46112,
			"target":34962
		},
		{
			"buffer":0,
			"byteLength":132,
			"byteOffset":46464,
			"target":34963
		},
		{
			"buffer":0,
			"byteLength":864,
			"byteOffset":46596,
			"target":34962
		},
		{
			"buffer":0,
			"byteLength":864,
			"byteOffset":47460,
			"target":34962
		},
		{
			"buffer":0,
			"byteLength":576,
			"byteOffset":48324,
			"target":34962
		},
		{
			"buffer":0,
			"byteLength":288,
			"byteOffset":48900,
			"target":34963
		},
		{
			"buffer":0,
			"byteLength":792,
			"byteOffset":49188,
			"target":34962
		},
		{
			"buffer":0,
			"byteLength":792,
			"byteOffset":49980,
			"target":34962
		},
		{
			"buffer":0,
			"byteLength":528,
			"byteOffset":50772,
			"target":34962
		},
		{
			"buffer":0,
			"byteLength":288,
			"byteOffset":51300,
			"target":34963
		},
		{
			"buffer":0,
			"byteLength":3168,
			"byteOffset":51588,
			"target":34962
		},
		{
			"buffer":0,
			"byteLength":3168,
			"byteOffset":54756,
			"target":34962
		},
		{
			"buffer":0,
			"byteLength":2112,
			"byteOffset":57924,
			"target":34962
		},
		{
			"buffer":0,
			"byteLength":1152,
			"byteOffset":60036,
			"target":34963
		}
	],
	"samplers":[
		{
			"magFilter":9728,
			"minFilter":9984
		}
	],
	"buffers":[
		{
			"byteLength":61188,
			"uri":"gridmap.bin"
		}
	]
}
