{
	"asset":{
		"generator":"Khronos glTF Blender I/O v4.2.57",
		"version":"2.0"
	},
	"scene":0,
	"scenes":[
		{
			"name":"Scene",
			"nodes":[
				0
			]
		}
	],
	"nodes":[
		{
			"mesh":0,
			"name":"cube 1x2 spike"
		}
	],
	"materials":[
		{
			"alphaMode":"BLEND",
			"doubleSided":true,
			"name":"mat_prototype_map",
			"pbrMetallicRoughness":{
				"baseColorTexture":{
					"index":0
				},
				"metallicFactor":0,
				"roughnessFactor":0.5
			}
		}
	],
	"meshes":[
		{
			"extras":{
				"targetNames":[
					"spike_up"
				]
			},
			"name":"Cube.043",
			"primitives":[
				{
					"attributes":{
						"POSITION":0,
						"NORMAL":1,
						"TEXCOORD_0":2
					},
					"indices":3,
					"material":0,
					"targets":[
						{
							"POSITION":4,
							"NORMAL":5
						}
					]
				}
			],
			"weights":[
				1
			]
		}
	],
	"textures":[
		{
			"sampler":0,
			"source":0
		}
	],
	"images":[
		{
			"mimeType":"image/png",
			"name":"tex_prototype_map.png",
			"uri":"Textures/tex_prototype_map.png"
		}
	],
	"accessors":[
		{
			"bufferView":0,
			"componentType":5126,
			"count":522,
			"max":[
				1,
				1.0859375,
				1
			],
			"min":[
				-1,
				0,
				-1
			],
			"type":"VEC3"
		},
		{
			"bufferView":1,
			"componentType":5126,
			"count":522,
			"type":"VEC3"
		},
		{
			"bufferView":2,
			"componentType":5126,
			"count":522,
			"type":"VEC2"
		},
		{
			"bufferView":3,
			"componentType":5123,
			"count":636,
			"type":"SCALAR"
		},
		{
			"bufferView":4,
			"componentType":5126,
			"count":522,
			"max":[
				0,
				0.375,
				0
			],
			"min":[
				0,
				0,
				0
			],
			"type":"VEC3"
		},
		{
			"componentType":5126,
			"count":522,
			"sparse":{
				"count":360,
				"indices":{
					"bufferView":5,
					"componentType":5123
				},
				"values":{
					"bufferView":6
				}
			},
			"type":"VEC3"
		}
	],
	"bufferViews":[
		{
			"buffer":0,
			"byteLength":6264,
			"byteOffset":0,
			"target":34962
		},
		{
			"buffer":0,
			"byteLength":6264,
			"byteOffset":6264,
			"target":34962
		},
		{
			"buffer":0,
			"byteLength":4176,
			"byteOffset":12528,
			"target":34962
		},
		{
			"buffer":0,
			"byteLength":1272,
			"byteOffset":16704,
			"target":34963
		},
		{
			"buffer":0,
			"byteLength":6264,
			"byteOffset":17976,
			"target":34962
		},
		{
			"buffer":0,
			"byteLength":720,
			"byteOffset":24240
		},
		{
			"buffer":0,
			"byteLength":4320,
			"byteOffset":24960
		}
	],
	"samplers":[
		{
			"magFilter":9728,
			"minFilter":9984
		}
	],
	"buffers":[
		{
			"byteLength":29280,
			"uri":"cube_spike.bin"
		}
	]
}
